<svg width="256" height="256" viewBox="0 0 256 256" fill="none" xmlns="http://www.w3.org/2000/svg">
<g clip-path="url(#clip0)">
<path d="M128 10C151.339 9.99945 174.153 16.9197 193.559 29.8857C212.964 42.8517 228.089 61.281 237.02 82.843C245.952 104.405 248.289 128.131 243.735 151.021C239.182 173.912 227.943 194.937 211.44 211.44C189.31 233.57 159.296 246.002 128 246.002C96.7039 246.002 66.6897 233.57 44.56 211.44C22.4303 189.31 9.99802 159.296 9.99802 128C9.99802 96.7039 22.4303 66.6897 44.56 44.56C55.4918 33.5681 68.4954 24.8537 82.818 18.9215C97.1405 12.9892 112.498 9.95688 128 10V10ZM128 0C102.684 0 77.9365 7.50707 56.887 21.5719C35.8375 35.6367 19.4314 55.6276 9.74342 79.0165C0.0553989 102.405 -2.47943 128.142 2.45948 152.972C7.39839 177.801 19.5892 200.609 37.4903 218.51C55.3915 236.411 78.1989 248.602 103.028 253.541C127.858 258.479 153.595 255.945 176.983 246.257C200.372 236.569 220.363 220.162 234.428 199.113C248.493 178.063 256 153.316 256 128C256 94.0523 242.514 61.495 218.51 37.4903C194.505 13.4857 161.948 0 128 0V0Z" fill="#221F1F"/>
<path d="M205 125.987C205 123.918 202.688 117.033 198.881 118.071C195.582 118.967 196.427 121.904 196.684 124.563C196.862 126.434 195.333 128.046 192.985 128.843C187.177 130.822 185.772 130.329 183.815 134.833C183.219 136.212 182.979 137.287 180.969 138.182C179.866 138.675 178.026 138.997 177.412 140.161C176.736 141.468 175.224 144.638 173.205 145.793C166.846 149.428 165.699 146.312 166.508 144.002C167.647 140.725 166.633 137.734 164.854 140.555C164.854 136.741 162.586 133.517 159.989 135.183C158.015 136.445 158.148 138.916 158.015 141.074C157.374 151.246 150.811 144.871 154.048 135.335C155.685 130.508 159.384 131.502 159.073 129.962C158.682 128.073 149.806 129.309 144.888 130.858C144.555 130.926 144.209 130.881 143.904 130.73C143.599 130.579 143.352 130.331 143.202 130.025C143.052 129.718 143.007 129.37 143.073 129.035C143.14 128.7 143.315 128.396 143.571 128.171C145.155 126.819 146.702 125.799 145.857 125.575C144.568 125.226 134.215 122.772 128.408 123.166C122.6 123.56 117.246 123.48 99.361 121.268C88.6578 119.94 78.0623 117.845 67.6551 115C67.6551 115 67.2905 117.221 65.7252 117.221C64.5156 117.221 64.0443 116.11 61.2783 115.537C61.7495 117.338 61.8193 119.222 61.4829 121.053C60.1666 127.392 54.5725 137.17 55.0261 146.823C55.5508 157.971 59.6597 166.173 67.744 177.159C75.7483 177.553 81.209 184.43 93.4023 186.355C93.9537 182.451 98.7385 185.46 101.318 187.179C104.466 189.247 104.546 194.342 108.628 195.855C112.55 189.722 116.25 196.178 120.946 203.914C122.911 207.155 128.061 209 128.061 209C127.296 195.829 134.66 192.775 142.531 193.483C147.253 193.912 150.304 195.775 151.914 194.718C153.088 193.948 151.763 191.584 151.763 191.584C154.926 190.289 158.308 189.62 161.723 189.614C166.046 189.614 169.399 189.543 173.694 193.008C176.247 195.067 176.087 204.227 183.308 205.812C184.891 206.162 184.874 200.359 181.814 194.987C180.4 192.507 178.257 190.089 177.501 187.6C175.935 182.666 181.823 175.252 187.488 170.659C189.899 168.707 191.704 164.283 189.516 161.875C188.164 160.388 187.515 157.989 189.587 155.508C193.234 151.139 193.056 149.518 192.255 144.942C200.598 141.11 198.481 137.134 198.57 135.254C198.685 130.517 205 128.118 205 125.987Z" fill="#E50914" stroke="#E50914" stroke-linecap="round" stroke-linejoin="round"/>
<path d="M51 67.7418L71.0842 46L88.9368 55.3179C98.5772 62.7722 96.8217 64.0442 94.7389 63.7484L101.434 65.9669L103.847 70.7655C103.571 69.349 105.307 66.4964 106.343 65.0795C107.533 64.34 109.289 63.3047 106.789 65.0795C103.665 67.2981 120.179 69.5166 118.84 69.0729C117.769 68.7179 120.179 65.3753 121.518 63.7484L120.625 64.1921V61.9736C117.418 62.4173 118.394 53.9868 118.84 53.5431C119.198 53.1874 123.856 61.3833 125.232 64.1939C125.241 63.4241 125.674 62.4821 125.981 61.9736C128.659 60.6424 126.874 67.7418 129.551 68.1855C132.229 68.6292 129.105 60.6424 129.551 58.8676C129.908 57.4477 132.676 59.4592 134.015 60.6424L135.354 61.0861L134.015 62.4173C134.163 62.2694 134.729 62.6835 135.8 65.5232C137.139 69.0729 134.015 67.2981 131.783 68.6292C129.998 69.6941 131.039 70.2561 131.783 70.404L130.444 73.51C129.551 72.7705 127.588 71.5577 126.874 72.6226C126.159 73.6875 129.551 74.2495 131.337 74.3974L127.32 81.9405C118.751 93.6544 122.262 95.3997 125.088 94.8081L126.874 100.576C134.461 97.0266 135.8 102.795 136.246 102.351C136.603 101.996 139.668 102.499 141.156 102.795L146.065 102.351C162.132 120.1 157.52 110.042 153.206 102.795C159.276 95.6955 153.652 90.9626 150.082 89.4836C151.421 82.3842 144.28 76.616 152.313 74.8411C158.74 73.4213 162.132 78.9824 163.025 81.9405C163.918 81.7926 166.149 81.5855 167.934 81.9405C169.72 82.2955 169.273 76.7639 168.827 73.9537C169.898 72.5339 182.068 81.6447 188.019 86.3776C187.572 79.2782 197.838 80.1657 196.945 83.7153C196.231 86.5551 194.565 91.7021 193.821 93.9207C182.663 91.7021 179.539 118.325 182.217 120.1C184.894 121.874 175.522 126.312 174.629 125.868C173.915 125.513 165.703 134.002 161.686 138.292C161.537 138.735 160.883 139.978 159.455 141.398C158.026 142.818 157.669 141.398 157.669 140.51L159.455 136.517C158.116 130.749 163.025 131.192 163.025 130.749C163.025 130.394 160.05 128.826 158.562 128.086C155.884 128.382 150.617 128.885 150.975 128.53C151.421 128.086 139.37 120.987 138.924 123.206C138.478 125.424 132.676 126.312 132.229 126.755C131.872 127.11 126.13 125.128 123.303 124.093C106.165 127.643 74.8035 120.247 61.2652 116.106L55.4631 97.9141L55.0168 96.1392L57.6947 92.1458L58.5874 90.371C57.6947 89.3357 56.088 87.0875 56.8021 86.3776C57.5162 85.6677 57.0996 80.4615 56.8021 77.9471C56.9509 77.5034 57.1591 76.5272 56.8021 76.1723C56.445 75.8173 53.9754 76.3202 52.7853 76.616V70.404L51 67.7418Z" fill="#E50914"/>
<path d="M71.0842 46L51 67.7418L52.7853 70.404V76.616C53.9754 76.3202 56.445 75.8173 56.8021 76.1723C57.1591 76.5272 56.9509 77.5034 56.8021 77.9471C57.0996 80.4615 57.5162 85.6677 56.8021 86.3776C56.088 87.0875 57.6947 89.3357 58.5874 90.371L57.6947 92.1458L55.0168 96.1392L55.4631 97.9141L61.2652 116.106C74.8035 120.247 106.165 127.643 123.303 124.093C126.13 125.128 131.872 127.11 132.229 126.755C132.676 126.311 138.478 125.424 138.924 123.206C139.37 120.987 151.421 128.086 150.975 128.53C150.617 128.885 155.884 128.382 158.562 128.086C160.05 128.826 163.025 130.394 163.025 130.749C163.025 131.192 158.116 130.749 159.455 136.517L157.669 140.51C157.669 141.398 158.026 142.818 159.455 141.398C160.883 139.978 161.537 138.735 161.686 138.292C165.703 134.002 173.915 125.513 174.629 125.868C175.522 126.311 184.894 121.874 182.217 120.1C179.539 118.325 182.663 91.7021 193.821 93.9207C194.565 91.7021 196.231 86.5551 196.945 83.7153C197.838 80.1657 187.572 79.2782 188.019 86.3776C182.068 81.6447 169.898 72.5339 168.827 73.9537C169.273 76.7639 169.72 82.2955 167.934 81.9405C166.149 81.5855 163.918 81.7926 163.025 81.9405C162.132 78.9824 158.74 73.4213 152.313 74.8411C144.28 76.616 151.421 82.3842 150.082 89.4836C153.652 90.9626 159.276 95.6955 153.206 102.795C157.52 110.042 162.132 120.1 146.065 102.351L141.156 102.795C139.668 102.499 136.603 101.996 136.246 102.351C135.8 102.795 134.461 97.0266 126.874 100.576L125.088 94.8081C122.262 95.3997 118.751 93.6544 127.32 81.9405L131.337 74.3974C129.551 74.2495 126.159 73.6875 126.874 72.6226C127.588 71.5577 129.551 72.7705 130.444 73.51L131.783 70.404C131.039 70.2561 129.998 69.6941 131.783 68.6292C134.015 67.2981 137.139 69.0729 135.8 65.5232C134.729 62.6835 134.163 62.2694 134.015 62.4173L135.354 61.0861L134.015 60.6424C132.676 59.4592 129.908 57.4477 129.551 58.8676C129.105 60.6424 132.229 68.6292 129.551 68.1855C126.874 67.7418 128.659 60.6424 125.981 61.9736C125.535 62.7131 124.82 64.3696 125.535 65.0795C126.427 65.9669 119.286 53.0994 118.84 53.5431C118.394 53.9868 117.418 62.4173 120.625 61.9736V64.1921L121.518 63.7484C120.179 65.3753 117.769 68.7179 118.84 69.0729C120.179 69.5166 103.665 67.2981 106.789 65.0795C109.289 63.3047 107.533 64.34 106.343 65.0795C105.153 66.7065 103.04 70.2266 104.111 71.2915L101.434 65.9669L94.7389 63.7484C96.8217 64.0442 98.5772 62.7722 88.9368 55.3179L71.0842 46Z" stroke="#E50914" stroke-linecap="round" stroke-linejoin="round"/>
</g>
<defs>
<clipPath id="clip0">
<rect width="256" height="256" fill="white"/>
</clipPath>
</defs>
</svg>
