<svg id="Layer_1" data-name="Layer 1" xmlns="http://www.w3.org/2000/svg" viewBox="0 0 256 256"><defs><style>.cls-1{fill:#221f1f;}.cls-2{fill:#e50914;}</style></defs><title>asia.pacific</title><path class="cls-1" d="M128,10a118,118,0,0,1,83.44,201.44A118,118,0,0,1,44.56,44.56,117.22,117.22,0,0,1,128,10m0-10A128,128,0,1,0,256,128,128,128,0,0,0,128,0Z"/><path class="cls-2" d="M147.3,82.87a1.91,1.91,0,0,0,1.22,1.27,1.4,1.4,0,0,0,.41.06c1,0,2-.84,3.17-1.72A13.72,13.72,0,0,1,154.18,81c.72-.36,1.84-.77,3.14-1.25,2.92-1.09,6.57-2.44,8.27-4.14,2-2,2.61-7.38,1.6-9.8-.46-1.13-1.16-1.37-1.66-1.37-1.55,0-2,1.24-2.5,2.56a7.11,7.11,0,0,1-3.65,4.54C153.08,74.74,145.86,79.25,147.3,82.87Z"/><path class="cls-2" d="M166,60.16a1.67,1.67,0,0,0,.67.13A7.21,7.21,0,0,0,170,58.8l.86-.54a1.81,1.81,0,0,0,1-1.73c-.12-1.51-2.05-2.93-3.91-3.67a1.79,1.79,0,0,0-1.84.36c-1,.81-1.72,2.75-1.2,5.27A2.08,2.08,0,0,0,166,60.16Z"/><path class="cls-2" d="M112.6,113a12.7,12.7,0,0,0-2.59-4c-1.49-1.77-2.77-3.3-2.15-5.17.78-2.34,2.64-2.34,5.61-2.13.72,0,1.46.1,2.21.1,4.1,0,10.29-4.25,15.78-10.84,3.88-4.66,3.39-9.36-1.46-14l-.27-.26a.91.91,0,0,1-.35-.77c.06-.9,1.5-2,2.66-2.89s2-1.51,2-2.21a.84.84,0,0,0-.27-.69,3,3,0,0,0-2.44-.48c-1.4.09-2.73.17-3.36-1.7a1.42,1.42,0,0,1,.65-1.72c2.07-1.5,7.18-1.33,10.42,1.1,2.33,1.74,1.81,3.7,1.32,5.6-.4,1.53-.86,3.26,1.19,4a3.9,3.9,0,0,0,4.3-1.28,5.2,5.2,0,0,0,1-5.34,10.43,10.43,0,0,0-1.83-2.3c-.8-.85-1.8-1.9-1.64-2.44.05-.19.33-.55,1.57-.87,4.47-1.11,4.45-7.84,4.36-9.72,1.12-.18,3.87-.81,5.09-2.75.94-1.49,1.88-3.57,1-5-.62-1-2.06-1.42-4.25-1.22-5.24.51-7.19-4.17-8.9-8.29-.45-1.08-.88-2.11-1.34-3-1.18-2.2-4.37-2.69-9.24-1.42a1.56,1.56,0,0,0-1,2.24,3.65,3.65,0,0,1-.89,4.42c-2.93,2.93-4.87,3.44-13,3.44-8.92,0-14-2-14.94-3.93a6.11,6.11,0,0,0-3.55-3.11,5,5,0,0,0-4,.53c-1.41.81-.93,2.44-.54,3.75.21.74.46,1.57.24,1.87-.11.15-.42.23-.85.23a5.66,5.66,0,0,1-3.23-1,8.83,8.83,0,0,0-5.06-1.38C78.83,40.39,68.4,50.76,68,51.2c-3.09,3.09-3.41,7.53-3.42,9-5.58.53-9,2.13-10.23,4.77-1.11,2.42,0,5,.67,6.24-4.24.27-5.37,2.49-6.77,5.27a25.12,25.12,0,0,1-2.3,3.88c-2.29,3.06-7.84,4.07-10.95,4.41a2.22,2.22,0,0,0-1.72,1.14,2.16,2.16,0,0,0-.06,2,3.6,3.6,0,0,1,.09,3.6A1.56,1.56,0,0,0,33.21,93a1.72,1.72,0,0,0,1.35.93l7.28.69c1.29,6.2,7.89,6.11,9.57,6a18.48,18.48,0,0,1,1,6.57c0,3.42,1.53,6.87,3,10.21.64,1.44,1.25,2.81,1.74,4.17.12.32.47,1.29,1.3,1.39s1.92-.85,3.8-3.66a16.64,16.64,0,0,0,2-4.58,12.81,12.81,0,0,1,3.23-6,48.92,48.92,0,0,1,7.63-5.6,36.84,36.84,0,0,0,5.39-3.88,2.68,2.68,0,0,1,3.82-.19c-.61,2.28.47,4.15,1.52,6a13.32,13.32,0,0,1,1.6,3.47,1.69,1.69,0,0,0,.83,1.26c.58.23,1.17-.13,1.78-.52a3.33,3.33,0,0,1,1.62-.68c.82,0,1,.43,1.57,3.11.17.76.37,1.68.64,2.76a11.2,11.2,0,0,1-.1,5.67c-.28,1.19-.49,2.13.23,2.85a20.26,20.26,0,0,1,4.17,5.83c.89,1.73,3.71,5.73,5.5,5.73a1.06,1.06,0,0,0,.31-.05c1.05-.33.85-1.93.78-2.46-.35-2.73-2.78-5.28-4.92-7.53a15.16,15.16,0,0,1-2.66-3.25,7.49,7.49,0,0,1,.7-5.6,1.52,1.52,0,0,1,1.21-.82c1.43,0,4.76,4.7,6.67,8a.51.51,0,0,0,.59.23C110.17,121.81,113.87,116.79,112.6,113Z"/><path class="cls-2" d="M65.81,121.91a.56.56,0,0,0-.36.14,5.69,5.69,0,0,0-1.39,3.88,2.25,2.25,0,0,0,1.28,2.31,2.29,2.29,0,0,0,.94.19,3.18,3.18,0,0,0,2.16-.89c.58-.56.65-1.52.19-2.69C68.07,123.45,66.83,121.92,65.81,121.91Z"/><path class="cls-2" d="M139.38,125.61c.82-.1,1.81-1,1.81-4.55a9.1,9.1,0,0,0-3.91-7.49,5.79,5.79,0,0,1-2.16-4c-.22-2-1.26-4-3-4a1.67,1.67,0,0,0-1.33.77c-.65.91-1.05,2.76-.22,5.25a14.76,14.76,0,0,0,2.38,4,15.67,15.67,0,0,1,3,5.58c.56,2.25,1.86,4.44,3.3,4.44Z"/><path class="cls-2" d="M105,140.14c-.94-.56-1.83-1-2.68-1.43a11.91,11.91,0,0,1-4.59-3.26c0-.07-5.67-7.29-7.43-6.65-.22.08-.58.33-.52,1,.18,2.48,3.67,7.2,6.86,10.39,1.72,1.72,7.27,6.44,9.75,6.44a1.66,1.66,0,0,0,.32,0,1.18,1.18,0,0,0,.89-.75C108.38,143.88,106.85,141.24,105,140.14Z"/><path class="cls-2" d="M124.81,125.66c-2.07,0-3.55,2.08-4.86,3.91a11.49,11.49,0,0,1-2.18,2.57,6.48,6.48,0,0,1-2.29.93c-1.47.39-3.13.82-3.13,3.49,0,4.34,4.12,6.31,8,6.31,3,0,5.43-2.51,6.4-6.55.34-1.44,1.37-7.72-.34-9.89A2,2,0,0,0,124.81,125.66Z"/><path class="cls-2" d="M137.45,138.69c.88-.73,2.07-1.74,1.27-3.29a3.41,3.41,0,0,0-2.38-1.71,4,4,0,0,0-3.38.82,8.56,8.56,0,0,0-2.62,8.53,3,3,0,0,0,2.91,2.18,3.15,3.15,0,0,0,2.56-1.09,4.57,4.57,0,0,0,.54-3.86C136.24,139.75,136.69,139.33,137.45,138.69Z"/><path class="cls-2" d="M138.52,153.59l.11,0c.42-.19.85-.57.76-1.07s-.87-1.07-4.29-1.27a92.2,92.2,0,0,1-15.69-2.6c-1.19-.34-6.9-1.34-8.23-.41a.85.85,0,0,0-.38.66,1,1,0,0,0,.4.79c2,1.75,13.28,4.37,22,4.37A28.09,28.09,0,0,0,138.52,153.59Z"/><path class="cls-2" d="M210.59,190a2.25,2.25,0,0,1-.76-.91l-.4-.82c-1-2-1.83-3.79-4.12-3.6a.8.8,0,0,0-.71.42c-.25.51.12,1.08.73,2,.94,1.44,2.35,3.61,1.25,5.49-1.48,2.51-1.12,4,1.34,5.43a2.16,2.16,0,0,0,1.1.33c1.21,0,2.18-1.22,3-2.49A4.3,4.3,0,0,0,210.59,190Z"/><path class="cls-2" d="M205,200.61a2.94,2.94,0,0,0-3.56,1.41,19.07,19.07,0,0,1-3.92,4.41,18.72,18.72,0,0,1-1.78,1.22c-1.69,1.08-3.29,2.1-3.31,3.35a1.88,1.88,0,0,0,1,1.56,3.68,3.68,0,0,0,2.14.69c2.42,0,5-2.3,7.24-4.6a14.39,14.39,0,0,0,3-5.06C206.34,202,205.73,201,205,200.61Z"/><path class="cls-2" d="M176.4,208.76a4.49,4.49,0,0,0-4.2.36,2,2,0,0,0-.88,2.17c.31,1.51,1.63,3.49,3.27,3.49a2.58,2.58,0,0,0,.39,0,3.2,3.2,0,0,0,2.3-2.83C177.49,210.72,177.3,209.29,176.4,208.76Z"/><path class="cls-2" d="M174.2,167.31c0-3.58-.75-5.89-2.12-6.88a2.48,2.48,0,0,0-1.46-.49,13.42,13.42,0,0,0-1.66-4.38,1.4,1.4,0,0,0-1.4-.69,1.38,1.38,0,0,0-1.15,1,14.84,14.84,0,0,0-.31,3.4,11.58,11.58,0,0,1-.49,3.63,1.44,1.44,0,0,1-.79.87,1.49,1.49,0,0,1-1.19.05c-.81-.31-1.54-.56-2.18-.79-3-1.07-3.82-1.41-3.88-2.68a5.66,5.66,0,0,1,.65-2.18,1.37,1.37,0,0,0-.91-1.9c-.37-.09-.75-.21-1.14-.33-1.69-.53-3.8-1.2-6.43.55-1.65,1.1-2.57,2.14-2.75,3.08-1.16-.52-3.2-1.22-4.71-.53s-4.24,3.21-5.64,4.62a4.81,4.81,0,0,0-1.19,2.54c-.32,1.38-.59,2.57-3.32,3.25-1.17.29-2.29.51-3.29.71-3.2.64-5.51,1.11-6.5,3.1-2.38,4.74-.22,9.7,1.35,13.33.38.89.75,1.74,1,2.45a5.68,5.68,0,0,1-1.53,5.66.51.51,0,0,0-.14.47c0,.1.6,2.5,4.51,2.5,3.64,0,9.92-2.68,13.65-5.17a12.89,12.89,0,0,1,11.06-1.44c4.11,1.36,3.27,4.65,3.23,4.79a.53.53,0,0,0,.08.44.51.51,0,0,0,.4.19c1.71,0,3.35-1.55,4.3-2.67a7.38,7.38,0,0,0,2.19,4.7,7.46,7.46,0,0,1,1.75,2.8,5.19,5.19,0,0,0,3.55,3,12.71,12.71,0,0,0,4.1.65,10.65,10.65,0,0,0,5.7-1.45,7.46,7.46,0,0,0,3.27-4.77,12.53,12.53,0,0,1,1.61-3.66c2.74-4.12,3.7-10.32,2.44-15.79C183.39,173,175.73,168.22,174.2,167.31Z"/><path class="cls-2" d="M152.58,139.61a1.91,1.91,0,0,0-.5,1.89c.26,1.22,1.85,1.61,3.54,2a10,10,0,0,1,3.39,1.25,5.59,5.59,0,0,1,1.28,1.68,6.11,6.11,0,0,0,3.62,3.25,10.15,10.15,0,0,0,4.49.18,4.82,4.82,0,0,1,3.51.4,14.89,14.89,0,0,1,2.68,2.05c.86.77,1.5,1.35,2.17,1.35h.17a1.36,1.36,0,0,0,.95-.72,2.12,2.12,0,0,0,0-2c-1.6-3.89-11.12-10-16.61-11.41C159.22,139,154.25,138,152.58,139.61Z"/></svg>