<svg id="Layer_1" data-name="Layer 1" xmlns="http://www.w3.org/2000/svg" viewBox="0 0 256 256"><defs><style>.cls-1{fill:#221f1f;}.cls-2{fill:#e50914;}</style></defs><title>europe.middle.east.africa</title><path class="cls-1" d="M128,10a118,118,0,0,1,83.44,201.44A118,118,0,0,1,44.56,44.56,117.22,117.22,0,0,1,128,10m0-10A128,128,0,1,0,256,128,128,128,0,0,0,128,0Z"/><path class="cls-2" d="M190.27,106.4c1.94-.67,5.89,2.12,8.95,5.17,3.56,3.57,10,2.44,14.51.4a4.34,4.34,0,0,0,2-2.66c1.48-4.2,1-12.85-2.92-20.61a8.61,8.61,0,0,0-8.05-4.34,6.47,6.47,0,0,0-5.78,4.8,4.84,4.84,0,0,1-2.75,3.24c-1.87.76-4.43.32-7.39-1.27a80.43,80.43,0,0,1-14.65-10.5.5.5,0,0,0-.57-.09,27,27,0,0,1-11.1,2.22,72,72,0,0,0-13.14.89l-1.66.24c-4.46.64-7.69-.11-8.64-2-.58-1.17-.16-2.64,1.14-3.93.87-.87,5.08-2.67,6.63-3.29a.5.5,0,0,0,.3-.59A34.32,34.32,0,0,0,136.82,58a11,11,0,0,1-3.25-11.91.53.53,0,0,0-.06-.46.52.52,0,0,0-.41-.21c-1.07,0-1.65.52-2.69,1.47-.3.26-.63.57-1,.91a17.39,17.39,0,0,0-1.83,2,15.55,15.55,0,0,1-7.5,5.44c-3.51,1.17-9.62,2.48-12.06,1.27a1.69,1.69,0,0,1-.83-.79,5.41,5.41,0,0,0,0-3.72,2.3,2.3,0,0,0-1.3-1.4c-1-.37-2,.95-3.48,2.95-.43.58-.9,1.21-1.4,1.85-1.27,1.6-3.44,2.93-5.73,4.33a49.7,49.7,0,0,0-4.9,3.27l-1,.84a14.38,14.38,0,0,1-7,3.59c-4.44,1-6.33,2-6.33,3.45s1.45,2.06,2.73,2.63,2.34,1.1,2.34,2a3.91,3.91,0,0,1-1.17,3.24c-1.58,1.3-4.8.87-8,.22-6.62-1.32-8.26,4.65-8.87,6.89-1.85,6.79,2.11,8.74,5.24,9.62a9.74,9.74,0,0,0,11.2-4.55,13.4,13.4,0,0,1,5-5.44,14.53,14.53,0,0,0,2.32-1.81,10.3,10.3,0,0,0,.77-.92c1.1-1.43,2.48-3.2,4.88-2.39a7.82,7.82,0,0,0,4.22-.06c1.86-.39,3.62-.76,5.9.89.5.36,1.43,1.17,2.5,2.11s2.46,2.17,3.61,3.08l.68.5a5,5,0,0,1,1.62,1.53c1,1.87.56,2.9.15,3.52-.85,1.3-3,1.17-3.9,1.06a1.22,1.22,0,0,0-1.3.56,1.14,1.14,0,0,0,.33,1.29,6.64,6.64,0,0,0,3.71,1.7,2.23,2.23,0,0,0,1.21-.13.51.51,0,0,0,.26-.28,11.46,11.46,0,0,1,1.89-3.27c4.16-4,4.16-5,4.16-5.4,0-.73-1-1.34-2.83-2.55-2.19-1.41-5.18-3.33-7.14-5.93a3.87,3.87,0,0,1-.8-3.37,1.38,1.38,0,0,1,1.08-.91,2,2,0,0,1,1.94.55,43.32,43.32,0,0,0,3.85,3.91c2.17,1.9,6.57,4,7.76,4.48.08,5.47,2.22,9.62,4.2,11.18a2.57,2.57,0,0,0,2.16.68A2.39,2.39,0,0,0,129,94.35a2.28,2.28,0,0,1,.35-.42,4.56,4.56,0,0,1,.62-.35c.67-.34,1.35-.68,1.41-1.32a1.1,1.1,0,0,0-.53-1c-1.88-1.45-2.15-2.77-2.14-3.42a1.56,1.56,0,0,1,.5-1.23c1.23-.89,5.44-.42,6.86,1.46a21.88,21.88,0,0,1,1.73,2.84c1.05,1.92,2.13,3.9,4.14,5.22,2.7,1.76,9.65.19,15-1.45a1.84,1.84,0,0,1,1.69.31,1.8,1.8,0,0,1,.71,1.53c-.19,4.79-1.43,8.22-3.68,10.19-2,1.8-4.89,2.46-8.93,2.09a28.65,28.65,0,0,1-7.19-1.51c-2-.63-4.56-1.42-9.18-2.44-3.91-.87-6.71-.54-8.32,1a4.72,4.72,0,0,0-1.38,3.54c-8-.28-17.7-6.57-19.33-7.67a5.43,5.43,0,0,0-1.63-4.59c-2.11-1.94-6.07-2.39-11.45-1.32a63.53,63.53,0,0,1-8.79,1.13,56.78,56.78,0,0,0-11.06,1.71c-6.63,1.66-8.55,6.48-9.83,9.66a8.69,8.69,0,0,1-1.17,2.38,40.7,40.7,0,0,1-4.1,3.53c-3.22,2.52-6.55,5.12-7.36,9.17-.71,3.57-1.06,21.82,2.9,28.12,9,14.33,18.55,11.63,23.66,10.18l1.24-.34c11.16-2.79,16.79-.15,21.3,2a30.58,30.58,0,0,0,3.34,1.42c1.43.48,1.16,2.43.59,5.36a13,13,0,0,0-.35,5c1.13,4.54,4.57,7.54,7.89,10.44,3.51,3.07,6.83,6,7.39,10.46a11.32,11.32,0,0,1-.2,3.26,24.69,24.69,0,0,0-.37,4c0,4.45,1.47,5.9,3.68,8.09a34.43,34.43,0,0,1,3.22,3.54A24.54,24.54,0,0,1,124.1,223c.93,2.85,1.81,5.53,4.11,7.84a7.15,7.15,0,0,0,5.2,2.06,11.24,11.24,0,0,0,2.5-.31c7.8-1.84,17.1-11.55,20.32-21.2,1.82-5.46,5.71-9.48,9.15-13,3.15-3.25,5.88-6.06,6.16-9.19s-3-4.48-4.38-4.91c2.14-6.17,4.87-9,16.07-16.81,8.44-5.91,13.37-14,12-16.93-.29-.62-1.11-1.56-3.33-.95-9.7,2.65-21-6.72-25.49-14.49-.82-1.44-1.72-3.13-2.68-4.93-2.66-5-5.68-10.66-8.18-13.09a2.54,2.54,0,0,1,.94-4.38,2.55,2.55,0,0,1,1.95.23c2.63,1.52,7.35,6.91,9.94,10.8.92,1.38,1.89,3,2.91,4.75,4,6.8,9,15.26,15.6,15.26,6.18,0,11.44-3.35,17.92-8.75l.1-.08c3.2-2.67,9.17-7.64,9.7-11s-3.67-5.61-7.4-7.18a.54.54,0,0,0-.43,0,.51.51,0,0,0-.25.34s-.94,3.91-6.19,3.59a12.78,12.78,0,0,1-8.64-4.87c-2-2.36-3-5-2.72-7.16C189.11,107.42,189.55,106.64,190.27,106.4Z"/><path class="cls-2" d="M189.17,190.56c-.81-.14-1.45.7-2.52,2.09a18.62,18.62,0,0,1-4.66,4.64c-4.67,2.92-8.81,8.18-9.22,11.73a3,3,0,0,0,.7,2.56,3.71,3.71,0,0,0,2.72,1.07,7.09,7.09,0,0,0,2.48-.51,17.11,17.11,0,0,0,5.72-3.9c3.42-3.38,7.11-12.57,5.88-16.33C190.1,191.38,189.8,190.67,189.17,190.56Z"/><path class="cls-2" d="M106.13,46.32c1.87-.93,3,.12,4.37,1.33,1,.89,2.06,1.86,3.44,1.86a4.13,4.13,0,0,0,2.47-1c3-2.27,3-4.81,2.93-7,0-1.92-.07-3.74,1.65-5.45,3.77-3.78,7.54-6,9.8-5.75a2.43,2.43,0,0,1,1.89,1.14,1.15,1.15,0,0,1,.26.92c-.16.65-1.27,1.24-2.34,1.82-1.93,1-4.33,2.33-3.65,5a4.45,4.45,0,0,0,2.18,3c2.39,1.31,6,.54,8.66-.34,2.25-.75,3.7-1.88,4.31-3.37s.39-3.22-.63-5.26c-2.09-4.19,1.06-8.49,1.09-8.54a.51.51,0,0,0,0-.6c-.05-.06-1.21-1.55-4.81-2.45-4.11-1-8.82-2-12.81,0a54.14,54.14,0,0,0-13.72,10.29,43.13,43.13,0,0,1-6.43,5c-2.42,1.64-4.34,2.94-5,4.23a4.36,4.36,0,0,0,1,4.72C102.11,47.18,104.07,47.36,106.13,46.32Z"/><path class="cls-2" d="M71,59.5l.36,0c3.65-.44,4.76-2,6.58-5.59,1-2,1.13-3.16.44-3.77-1.06-1-3.46.4-4.81,1.29-1.68,1.12-4.68,5.39-4,7.22A1.39,1.39,0,0,0,71,59.5Z"/><path class="cls-2" d="M76.2,62.4a1.74,1.74,0,0,0,1.21,1.2,7.27,7.27,0,0,0,2.68.54c5.19,0,8.57-6.17,9.28-7.58,1.72-3.44.1-9.43-2.41-11.57a2.46,2.46,0,0,0-3.24-.3c-2.06,1.48-1.93,3.89-1.81,6.22A11.49,11.49,0,0,1,81.65,55c-.43,1.31-1.84,2.65-3.07,3.83C77.13,60.25,76,61.34,76.2,62.4Z"/></svg>