<svg id="Layer_1" data-name="Layer 1" xmlns="http://www.w3.org/2000/svg" viewBox="0 0 256 256"><defs><style>.cls-1{fill:#fff;}.cls-2{fill:#e50914;stroke:#e50914;stroke-linecap:round;stroke-linejoin:round;}.cls-3{fill:#221f1f;}</style></defs><title>latin.america</title><rect class="cls-1" width="256" height="256"/><g id="Latin_America" data-name="Latin America"><path class="cls-2" d="M124.1,100.51c-1.08-2.42-2.94-4.23-4.46-4.64a7.19,7.19,0,0,0-5.24,0c-1.68.5-3.86-2.72-3.29-6.41a1,1,0,0,0-.57-1.07,23.82,23.82,0,0,0-7.63-1.8s3.19-6.29,1.89-9.19c-.92-2-3,5.19-6,4.87-1.18-.13-1.92-.16-4.53,1.48-2.07,1.3-3.44,1.33-5,0-1-.9-4-3.63-3.75-9.47a32.83,32.83,0,0,1,2.3-8C85,66.3,82.59,64,81,61.85c-3.07-4.08-5.35.29-5.35.29C73,61,71.66,56.23,66.93,56.37s-7-1.43-10.57-2.38a5.66,5.66,0,0,0-3.55.21c1.2,1.88,1.56,3.83,2.24,6.49a21.13,21.13,0,0,0,7,12.3c5.55,5.16,1.86-1,0-4.08s-6.57-11.48-3.76-12c3.21-.57,6.55,12,9.33,13,2.41.9,3.75,7.47,5,11.18,1.11,3.36,5.83,8.36,15.39,7.36,6.54-.69,7.43-1,10.22,1.1s4.63,2.08,6.5,1.07c0,0,1.86,5,5.22,7.19a6.58,6.58,0,0,0,4.68.95,9.64,9.64,0,0,0,2.77-1.72h0c2.16-.37,3.29,1,4.26,2.77a37.43,37.43,0,0,1,2.29,5.76A7,7,0,0,0,124.1,100.51Z"/><path class="cls-2" d="M113.66,73.62c.45.72,2.35-1,4.58-.81,3.74.29,8.29,3.91,9.39,1.79.29-.56-1.55-1.45-3.89-2.22a15.29,15.29,0,0,0-6-.74C115.36,71.92,113.16,72.82,113.66,73.62Z"/><path class="cls-2" d="M130.25,77.62c.62,1.17,7.95-.05,7.92-1.34,0-.61-3.16-3.41-5.67-.91C131.13,76.73,130,77.19,130.25,77.62Z"/><path class="cls-3" d="M128,10a118,118,0,0,1,83.44,201.44A118,118,0,0,1,44.56,44.56,117.22,117.22,0,0,1,128,10m0-10A128,128,0,1,0,256,128,128,128,0,0,0,128,0Z"/><path class="cls-2" d="M136.67,152.32c3.07,1.74-1.46,32.8-3.41,38.8-1.87,5.78-.74,11.67.26,11.71s2.41-2.64,2.41-2.64-1.07,12.05-.6,16.46a10.33,10.33,0,0,0,8.58,9.21c4.39.69,6.37-1.09,3.13-1.91-3.49-.87-4.91-3.43-4.27-6,.46-1.9,2.61-3.7,3.66-5.33a1.62,1.62,0,0,0-.26-2.11c-.94-.83-2.09-2.45,0-4.41a7.83,7.83,0,0,0,2.25-6.91,10,10,0,0,0,4-.85,2.08,2.08,0,0,0,1.26-1.4,2.63,2.63,0,0,1,2-1.88c2.88-.67,7.2-2.67,3.17-8.46a9.64,9.64,0,0,0,8,.29c4.06-1.85,5.68-6.95,7.64-10,3.1-4.79,10.1-11.34,15.08-11.16s8.44-12.67,10.62-17.58,12.39-11.52,5.63-17.75c-6.32-5.83-11.14-7.21-15-6.67a2.56,2.56,0,0,1-1.63-.31,38.8,38.8,0,0,1-5.41-3.66,10.17,10.17,0,0,1-3.36-5.21,14.71,14.71,0,0,0-1.8-4.1c-3.38-5.42-7.5-5.47-12.68-7.47-5-1.93-2.82-5.53-11.72-7.39-10.63-2.22-14.94-5-18.3,1-1.18,2.1-4.05.38-3-1.94a.78.78,0,0,0-1-1.07C128,95,121.25,99,123.79,108.45c0,0-9.22,6.65-8.48,13.66s5.13,11.16,6.94,16.22S124.45,145.39,136.67,152.32Z"/><path class="cls-2" d="M153.62,221.29c-1.92-2.06,2.58-4.47,4.1-2.84C158.68,219.48,154.58,222.33,153.62,221.29Z"/></g></svg>