<svg id="Layer_1" data-name="Layer 1" xmlns="http://www.w3.org/2000/svg" viewBox="0 0 256 256"><defs><style>.cls-1{fill:#fff;}.cls-2{fill:#e50914;}.cls-3{fill:#221f1f;}</style></defs><title>Corporate Functions</title><g id="Corporate_Functions" data-name="Corporate Functions"><rect class="cls-1" width="256" height="256"/><path class="cls-2" d="M128,10a70,70,0,1,0,70,70A70,70,0,0,0,128,10Zm0,10a20,20,0,1,1-20,20A20,20,0,0,1,128,20Zm10,60a10,10,0,1,1-10-10A10,10,0,0,1,138,80ZM88,100a20,20,0,1,1,20-20A20,20,0,0,1,88,100Zm40,40a20,20,0,1,1,20-20A20,20,0,0,1,128,140Zm40-40a20,20,0,1,1,20-20A20,20,0,0,1,168,100Z"/><rect class="cls-2" x="137" y="226" width="67" height="20" rx="5"/><rect class="cls-2" x="52" y="226" width="67" height="20" rx="5"/><path class="cls-3" d="M104.09,216H55.94a5,5,0,0,1-3.53-1.46L7.32,169.5A24.86,24.86,0,0,1,0,151.82V100.66a15.53,15.53,0,0,1,31.06,0v27.58a15.52,15.52,0,0,1,17.58,3.06l28.24,28.24c1.65-.13,4-.26,6.57-.26,19.32,0,35.64,16.64,35.64,36.33V201A15,15,0,0,1,104.09,216ZM58,206h46.08a5,5,0,0,0,5-5v-5.43c0-14.27-11.74-26.33-25.64-26.33a71.19,71.19,0,0,0-7.83.43,5,5,0,0,1-4.14-1.43L41.57,138.37a5.5,5.5,0,0,0-7.78,0l-1,1a5.53,5.53,0,0,0,0,7.82l0,0L52,166.45a5,5,0,1,1-7.07,7.07L22.52,151.11a5,5,0,0,1-1.46-3.54V100.66a5.53,5.53,0,0,0-11.06,0v51.16a14.9,14.9,0,0,0,4.39,10.6Z"/><path class="cls-3" d="M200.06,216H151.91a15,15,0,0,1-15-15v-5.43c0-19.69,16.32-36.33,35.64-36.33,2.59,0,4.92.13,6.57.26l28.24-28.24a15.52,15.52,0,0,1,17.58-3.06V100.66a15.53,15.53,0,0,1,31.06,0v51.16a24.86,24.86,0,0,1-7.32,17.68l-45.09,45.08A5,5,0,0,1,200.06,216Zm-27.51-46.76c-13.9,0-25.64,12.06-25.64,26.33V201a5,5,0,0,0,5,5H198l43.62-43.62a14.9,14.9,0,0,0,4.39-10.6V100.66a5.53,5.53,0,0,0-11.06,0v46.91a5,5,0,0,1-1.46,3.54l-22.42,22.41a5,5,0,1,1-7.07-7.07l19.2-19.2,0,0a5.53,5.53,0,0,0,0-7.82l-1-1a5.5,5.5,0,0,0-7.78,0l-29.91,29.91a5,5,0,0,1-4.14,1.43A71.19,71.19,0,0,0,172.55,169.28Z"/></g></svg>