<svg id="Layer_1" data-name="Layer 1" xmlns="http://www.w3.org/2000/svg" viewBox="0 0 256 256"><defs><style>.cls-1{fill:#fff;}.cls-2{fill:#221f1f;}.cls-3{fill:#e50914;}</style></defs><title>Content</title><rect class="cls-1" width="256" height="256"/><path class="cls-2" d="M176.9,246H4.9a5,5,0,0,1-5-5V121a5,5,0,0,1,5-5h172a5,5,0,0,1,5,5V241A5,5,0,0,1,176.9,246ZM9.9,236h162V126H9.9Z"/><circle class="cls-3" cx="37.7" cy="68" r="38"/><circle class="cls-3" cx="133.9" cy="58" r="48"/><rect class="cls-3" x="29.9" y="168.5" width="122" height="20" rx="5"/><path class="cls-2" d="M251,243.37a5,5,0,0,1-1.71-.3l-73.1-26.61a5,5,0,1,1,3.42-9.39L246,231.23V130.78l-66.39,24.16a5,5,0,1,1-3.42-9.39l73.1-26.61a5,5,0,0,1,6.71,4.7V238.37a5,5,0,0,1-5,5Z"/></svg>