<svg id="Layer_1" data-name="Layer 1" xmlns="http://www.w3.org/2000/svg" viewBox="0 0 256 256"><defs><style>.cls-1{fill:#fff;}.cls-2{fill:#221f1f;}.cls-3{fill:#e50914;}</style></defs><rect class="cls-1" width="256" height="256"/><path class="cls-2" d="M215.58,59a5,5,0,0,1,4.7,3.28l23.11,80.25.06.2.06.2A49.91,49.91,0,0,1,246,158.74V194a15,15,0,0,1-15,15H211.4a15,15,0,0,1-15-15,35,35,0,0,0-35-35H95a35,35,0,0,0-35,35,15,15,0,0,1-15,15H25a15,15,0,0,1-15-15V159.36a49.91,49.91,0,0,1,2.89-16.77l.06-.15.05-.15L38.56,62.38A5,5,0,0,1,43.29,59H215.58m0-10H43.29A15,15,0,0,0,29.06,59.26l-25.59,80A60,60,0,0,0,0,159.36V194a25,25,0,0,0,25,25H45a25,25,0,0,0,25-25,25,25,0,0,1,25-25h66.4a25,25,0,0,1,25,25,25,25,0,0,0,25,25H231a25,25,0,0,0,25-25V158.74a60,60,0,0,0-3-19l-23.19-80.5A15,15,0,0,0,215.58,49Z"/><rect class="cls-3" x="40" y="37" width="40" height="10" rx="5"/><rect class="cls-3" x="177" y="37" width="40" height="10" rx="5"/><path class="cls-2" d="M143,130H113a5,5,0,0,0,0,10h30a5,5,0,0,0,0-10Z"/><circle class="cls-3" cx="188" cy="84.51" r="12"/><circle class="cls-3" cx="188" cy="128.51" r="12"/><circle class="cls-3" cx="207.51" cy="106.46" r="12"/><circle class="cls-3" cx="168" cy="106.46" r="12"/><rect class="cls-2" x="55.79" y="76.51" width="18" height="60" rx="8"/><rect class="cls-2" x="34.79" y="97.51" width="60" height="18" rx="8"/></svg>