<svg id="Layer_1" data-name="Layer 1" xmlns="http://www.w3.org/2000/svg" viewBox="0 0 256 256"><defs><style>.cls-1{fill:#fff;}.cls-2{fill:#221f1f;}.cls-3{fill:#e50914;}</style></defs><title>Product</title><rect class="cls-1" width="256" height="256"/><path class="cls-2" d="M251,192H5a5,5,0,0,1-5-5V15a5,5,0,0,1,5-5H251a5,5,0,0,1,5,5V187A5,5,0,0,1,251,192ZM10,182H246V20H10Z"/><path class="cls-2" d="M251,229H5a5,5,0,0,1,0-10H251a5,5,0,0,1,0,10Z"/><circle class="cls-3" cx="77" cy="224" r="22"/><circle class="cls-3" cx="128" cy="101" r="61"/><path class="cls-2" d="M110.15,137a5,5,0,0,1-5-5V70a5,5,0,0,1,7.5-4.33l53.7,31a5,5,0,0,1,0,8.66l-53.7,31A4.93,4.93,0,0,1,110.15,137Zm5-58.34v44.68L153.85,101Z"/></svg>