<svg id="Layer_1" data-name="Layer 1" xmlns="http://www.w3.org/2000/svg" viewBox="0 0 256 256"><defs><style>.cls-1{fill:#fff;}.cls-2{fill:#221f1f;}.cls-3{fill:#e50914;}</style></defs><title>Marketing</title><rect class="cls-1" width="256" height="256"/><path class="cls-2" d="M116,236.25a36,36,0,0,1-36-36v-15.2a5,5,0,0,1,10,0v15.2a26,26,0,0,0,51.52,5,5,5,0,0,1,9.81,1.91A36,36,0,0,1,116,236.25Z"/><path class="cls-2" d="M221,238.37a5,5,0,0,1-1.71-.3l-186-67.7a5,5,0,0,1-3.29-4.7V90.33a5,5,0,0,1,3.29-4.7l186-67.7a5,5,0,0,1,6.71,4.7V233.37a5,5,0,0,1-5,5ZM40,162.17l176,64.06V29.77L40,93.83Z"/><rect class="cls-3" x="-0.13" y="88" width="20.25" height="80" rx="5.06"/><rect class="cls-3" x="236" y="10.5" width="20" height="235" rx="5"/></svg>